# xmcd
#
# Track frame offsets: 
#        150
#        16679
#        38551
#        50385
#        73446
#        89332
#        109790
#        131396
#        157311
#        178198
#        196676
#        217030
#        230429
#        250979
#        268984
#        286934
#        303055
#        315118
#
# Disc length: 4464 seconds
#
# Revision: 1
# Processed by: cddbd v1.5.2PL0 Copyright (c) Steve Scherf et al.
# Submitted via: ExactAudioCopy v1.0b3
#
DISCID=f9116e12
DTITLE=Various Artist - Kuschel Lounge Vol 2 CD1
DYEAR=2013
DGENRE=Slow Rock
TTITLE0=Air - Cherry Blossom Girl (Radio Mix)
TTITLE1=Morcheeba - Blood Like Lemonade
TTITLE2=Vanessa Paradis - Il Y A
TTITLE3=Fous De La Mer Feat Adila Da Silva Sousa and Fou - Le Navigateur
TTITLE3=Solitaire
TTITLE4=Schiller Mit Kim Sanders - Let Me Love You
TTITLE5=Jazzamor - Way Back
TTITLE6=Aimee Sol Feat Deborah Vilchez - Beyond The Sky (Trumpet Mix)
TTITLE7=Noom Cafe - Sylt
TTITLE8=Telepopmusik - Breathe
TTITLE9=Thievery Corporation Feat Gunjan - Satyam Shivam Sundaram
TTITLE10=Wah - Ganesha
TTITLE11=Tom Novy Feat Amadeas - Dancing In The Sun (Radio Mix)
TTITLE12=Sans Souci - Pandora
TTITLE13=Despina Ricci - Plage Ensoleillee
TTITLE14=Sarah Mclachlan - Dirty Little Secret (Thievery Corporation M
TTITLE14=ix)
TTITLE15=Kosheen - Little Boy
TTITLE16=Chris Malinchak - So Good To Me
TTITLE17=Ophelie Winter - The Air That I Breathe
EXTD=
EXTT0=
EXTT1=
EXTT2=
EXTT3=
EXTT4=
EXTT5=
EXTT6=
EXTT7=
EXTT8=
EXTT9=
EXTT10=
EXTT11=
EXTT12=
EXTT13=
EXTT14=
EXTT15=
EXTT16=
EXTT17=
PLAYORDER=
